# xmcd
#
# Track frame offsets:
#	150
#	11390
#	25732
#	41952
#	57315
#	69277
#	95180
#	110390
#	124092
#	139525
#	157807
#	172442
#	186142
#	198020
#	209075
#	222387
#	234227
#	246272
#	265227
#	286925
#	300892
#	325040
#
# Disc length: 4471 seconds
#
# Revision: 0
# Processed by: cddbd v1.5.1PL0 Copyright (c) Steve Scherf et al.
# Submitted via: audiograbber 1.83.01
#
DISCID=39117516
DTITLE=Mojo workin' - Blues for the next generation
DYEAR=1997
DGENRE=Blues
TTITLE0=Robert Johnson - Cross road blues
TTITLE1=Kansas Joe and Memphis Minnie - When the levee breaks
TTITLE2=Muddy Waters - The blues had a baby and they named it Rock And Roll
TTITLE3=Jimmy Vaughan and the fabulous thunderbirds - Tuff enuff
TTITLE4=Taj Mahal - Last fair deal gone down
TTITLE5=Son House - Preachin' blues
TTITLE6=Blind Willie Johnson - Motherless children
TTITLE7=Big Bill Broonzy - Key to the highway
TTITLE8=Johnny Winter - Johnny B. Goode
TTITLE9=Shuggie Otis - Shuggie's old time boogie
TTITLE10=Blind Willie McTell - Southern can is mine
TTITLE11=Lead Belly - Fort Worth and Dallas blues
TTITLE12=Bukka White - Bukka's Jitterbug swing
TTITLE13=Screamin' Jay Hawkins - I put a spell on you
TTITLE14=Bessie Smith - It makes my love come down
TTITLE15=Champion Jack Dupree - Hurry down sunshine
TTITLE16=Brownie McGhee ( as Blind Boy Fuller #2 ) - Key to the highway 70 No.1
TTITLE17=The Electric Flag - Killing floor
TTITLE18=Willie Dixon - I'm your hoochie coochie man
TTITLE19=Blind Boy Fuller - Rag mama rag
TTITLE20=Stevie Ray Vaughan and Double Trouble - Texas flood
TTITLE21=Keb' Mo' - Am I wrong
EXTD=
EXTT0=
EXTT1=
EXTT2=
EXTT3=
EXTT4=
EXTT5=
EXTT6=
EXTT7=
EXTT8=
EXTT9=
EXTT10=
EXTT11=
EXTT12=
EXTT13=
EXTT14=
EXTT15=
EXTT16=
EXTT17=
EXTT18=
EXTT19=
EXTT20=
EXTT21=
PLAYORDER=
